<svg height="60" viewBox="0 -1 512.001 512" width="60" xmlns="http://www.w3.org/2000/svg"><path d="m55.113281 316.136719v177.699219c0 8.535156 6.917969 15.453124 15.453125 15.453124h370.867188c8.53125 0 15.453125-6.917968 15.453125-15.453124v-177.699219zm0 0" fill="#7393d8"/><path d="m55.117188 316.136719h401.769531v21.261719h-401.769531zm0 0" fill="#3d6fb7"/><path d="m433.351562 316.136719v177.699219c0 8.535156-6.917968 15.453124-15.453124 15.453124h23.535156c8.53125 0 15.453125-6.917968 15.453125-15.453124v-177.699219zm0 0" fill="#3d6fb7"/><path d="m55.117188 465.484375v28.351563c0 8.53125 6.917968 15.453124 15.453124 15.453124h370.863282c8.535156 0 15.453125-6.921874 15.453125-15.453124v-28.351563zm0 0" fill="#ffaf5c"/><path d="m433.351562 493.835938c0 8.535156-6.917968 15.453124-15.453124 15.453124h23.535156c8.53125 0 15.453125-6.917968 15.453125-15.453124v-28.351563h-23.53125v28.351563zm0 0" fill="#d67f3e"/><path d="m63.699219 264.960938v-163.339844c0-8.183594 6.632812-14.816406 14.816406-14.816406h354.96875c8.183594 0 14.816406 6.632812 14.816406 14.816406v163.339844zm0 0" fill="#7393d8"/><path d="m271.453125 193.074219c47.222656 0 85.503906-38.285157 85.503906-85.507813 0-7.160156-.890625-14.113281-2.550781-20.761718h-165.90625c-1.660156 6.648437-2.554688 13.601562-2.554688 20.761718.003907 47.222656 38.285157 85.507813 85.507813 85.507813zm0 0" fill="#3d6fb7"/><path d="m433.484375 86.804688h-23.53125c8.183594 0 14.816406 6.632812 14.816406 14.816406v163.339844h23.53125v-163.339844c0-8.183594-6.632812-14.816406-14.816406-14.816406zm0 0" fill="#3d6fb7"/><path d="m448.941406 384.386719c-1.421875 0-2.859375-.402344-4.132812-1.246094-3.453125-2.289063-4.398438-6.941406-2.113282-10.394531l50.136719-75.722656c2.285157-3.453126 6.941407-4.402344 10.394531-2.113282 3.453126 2.285156 4.398438 6.9375 2.113282 10.390625l-50.136719 75.726563c-1.445313 2.179687-3.828125 3.359375-6.261719 3.359375zm0 0" fill="#4a4a68"/><path d="m63.058594 384.386719c-2.433594 0-4.816406-1.179688-6.261719-3.359375l-50.136719-75.722656c-2.285156-3.457032-1.339844-8.109376 2.113282-10.394532 3.457031-2.285156 8.109374-1.339844 10.394531 2.113282l50.136719 75.722656c2.289062 3.457031 1.339843 8.109375-2.113282 10.394531-1.273437.84375-2.710937 1.246094-4.132812 1.246094zm0 0" fill="#4a4a68"/><path d="m341.503906 93.007812c0 47.222657-38.28125 85.503907-85.503906 85.503907s-85.503906-38.28125-85.503906-85.503907c0-47.222656 38.28125-85.507812 85.503906-85.507812s85.503906 38.285156 85.503906 85.507812zm0 0" fill="#ffaf5c"/><path d="m256 186.011719c-51.28125 0-93.003906-41.722657-93.003906-93.003907 0-51.285156 41.722656-93.007812 93.003906-93.007812s93.003906 41.722656 93.003906 93.003906c0 51.285156-41.722656 93.007813-93.003906 93.007813zm0-171.011719c-43.011719 0-78.003906 34.992188-78.003906 78.003906 0 43.011719 34.992187 78.007813 78.003906 78.007813s78.003906-34.996094 78.003906-78.007813c0-43.011718-34.992187-78.003906-78.003906-78.003906zm0 0" fill="#333356"/><path d="m303.414062 44.1875c-2.574218-2.207031-5.976562-3.179688-9.332031-2.667969l-56.160156 8.609375c-5.714844.875-9.863281 5.707032-9.863281 11.488282v34.476562c-2.402344-.867188-4.988282-1.34375-7.6875-1.34375-12.507813 0-22.6875 10.179688-22.6875 22.6875 0 12.511719 10.179687 22.6875 22.6875 22.6875 12.511718 0 22.6875-10.175781 22.6875-22.6875v-52.921875l49.40625-7.570313v29.277344c-2.402344-.867187-4.988282-1.339844-7.6875-1.339844-12.507813 0-22.683594 10.175782-22.683594 22.6875 0 12.507813 10.175781 22.683594 22.683594 22.683594 12.511718 0 22.6875-10.175781 22.6875-22.683594v-54.5625c0-3.394531-1.476563-6.609374-4.050782-8.820312zm0 0" fill="#4a4a68"/><path d="m215.761719 378.191406v131.097656h80.476562v-131.097656c0-5.691406-4.609375-10.300781-10.300781-10.300781h-59.875c-5.691406 0-10.300781 4.609375-10.300781 10.300781zm0 0" fill="#ebf9ff"/><path d="m285.9375 360.390625h-59.875c-9.816406 0-17.800781 7.984375-17.800781 17.800781v131.097656h15v-131.097656c0-1.542968 1.257812-2.800781 2.800781-2.800781h59.875c1.546875 0 2.800781 1.257813 2.800781 2.800781v131.097656h15v-131.097656c0-9.816406-7.984375-17.800781-17.800781-17.800781zm0 0" fill="#333356"/><path d="m237.605469 455.46875c-4.140625 0-7.5-3.355469-7.5-7.5v-10.34375c0-4.144531 3.359375-7.5 7.5-7.5s7.5 3.355469 7.5 7.5v10.34375c0 4.144531-3.359375 7.5-7.5 7.5zm0 0" fill="#333356"/><path d="m334.074219 383.339844v33.308594c0 8.53125 6.917969 15.453124 15.453125 15.453124h61.855468c8.53125 0 15.453126-6.917968 15.453126-15.453124v-33.308594c0-8.53125-6.917969-15.453125-15.453126-15.453125h-61.855468c-8.535156.003906-15.453125 6.921875-15.453125 15.453125zm0 0" fill="#ebf9ff"/><path d="m85.164062 383.339844v33.308594c0 8.53125 6.917969 15.453124 15.453126 15.453124h61.855468c8.535156 0 15.453125-6.917968 15.453125-15.453124v-33.308594c0-8.53125-6.917969-15.453125-15.453125-15.453125h-61.855468c-8.535157.003906-15.453126 6.921875-15.453126 15.453125zm0 0" fill="#ebf9ff"/><path d="m411.382812 439.601562h-61.855468c-12.65625 0-22.953125-10.296874-22.953125-22.953124v-33.308594c0-12.65625 10.296875-22.953125 22.953125-22.953125h61.855468c12.65625 0 22.953126 10.296875 22.953126 22.953125v33.308594c0 12.65625-10.296876 22.953124-22.953126 22.953124zm-61.855468-64.210937c-4.382813 0-7.953125 3.566406-7.953125 7.953125v33.304688c0 4.386718 3.566406 7.953124 7.953125 7.953124h61.855468c4.382813 0 7.953126-3.566406 7.953126-7.953124v-33.304688c0-4.386719-3.566407-7.953125-7.953126-7.953125zm0 0" fill="#333356"/><path d="m162.472656 439.601562h-61.855468c-12.65625 0-22.953126-10.296874-22.953126-22.953124v-33.308594c0-12.65625 10.296876-22.953125 22.953126-22.953125h61.855468c12.65625 0 22.953125 10.296875 22.953125 22.953125v33.308594c0 12.65625-10.296875 22.953124-22.953125 22.953124zm-61.855468-64.210937c-4.382813 0-7.953126 3.566406-7.953126 7.953125v33.304688c0 4.386718 3.566407 7.953124 7.953126 7.953124h61.855468c4.382813 0 7.953125-3.566406 7.953125-7.953124v-33.304688c0-4.386719-3.566406-7.953125-7.953125-7.953125zm0 0" fill="#333356"/><path d="m447.617188 206.449219h-383.234376c-10.300781 0-19.921874 5.128906-25.660156 13.679687l-38.722656 57.6875v22.867188c0 8.535156 6.917969 15.453125 15.453125 15.453125h481.09375c8.535156 0 15.453125-6.917969 15.453125-15.453125v-22.867188l-38.71875-57.6875c-5.742188-8.550781-15.363281-13.679687-25.664062-13.679687zm0 0" fill="#fc8190"/><path d="m512 300.683594v-22.867188h-512v22.867188c0 8.535156 6.917969 15.453125 15.453125 15.453125h481.09375c8.535156 0 15.453125-6.917969 15.453125-15.453125zm0 0" fill="#e8626c"/></svg>